<svg xmlns="http://www.w3.org/2000/svg" height="40" viewBox="0 -960 960 960" width="40"><path d="M478.461-240v-33.846h109.385q11.539 0 22.18-5.384 10.641-5.385 16.282-14.616L758.359-480 626.308-666.154q-5.641-9.231-16.282-14.615-10.641-5.385-22.18-5.385H218.461q-10.769 0-17.692 6.923t-6.923 17.692v103.078H160v-103.078q0-23.718 17.372-41.089Q194.743-720 218.461-720h366.121q22.651 0 41.637 11.179 18.986 11.18 32.345 29.539L800-480 658.564-279.179q-14.128 18.359-32.731 28.769Q607.231-240 584.615-240H478.461Zm-2.025-240ZM220-180v-120H100v-33.846h120v-120h33.846v120h120V-300h-120v120H220Z"/></svg>