<svg xmlns="http://www.w3.org/2000/svg" height="40" viewBox="0 -960 960 960" width="40"><path d="M480.259-356.923q59.254 0 101.036-42.041 41.782-42.042 41.782-101.295 0-59.254-42.041-101.036-42.042-41.782-101.295-41.782-59.254 0-101.036 42.041-41.782 42.042-41.782 101.295 0 59.254 42.041 101.036 42.042 41.782 101.295 41.782Zm-.506-33.949q-45.574 0-77.227-31.901-31.654-31.901-31.654-77.474 0-45.574 31.901-77.227 31.901-31.654 77.474-31.654 45.574 0 77.227 31.901 31.654 31.901 31.654 77.474 0 45.574-31.901 77.227-31.901 31.654-77.474 31.654ZM480.11-240q-129.443 0-236.059-70.961Q137.436-381.923 83.077-500q54.359-118.077 160.864-189.039Q350.447-760 479.89-760t236.059 70.961Q822.564-618.077 876.923-500q-54.359 118.077-160.864 189.039Q609.553-240 480.11-240ZM480-500Zm-.112 226.154q115.881 0 212.484-61.192Q788.975-396.231 839.949-500q-50.974-103.769-147.465-164.962-96.49-61.192-212.372-61.192-115.881 0-212.484 61.192Q171.025-603.769 119.897-500q51.128 103.769 147.619 164.962 96.49 61.192 212.372 61.192Z"/></svg>